<svg width="45" height="50" viewBox="0 0 45 50" fill="none" xmlns="http://www.w3.org/2000/svg">
<path d="M44.5438 0L40.5273 44.9948L22.473 50L4.46852 45.0018L0.456299 0H44.5438Z" fill="#264DE4"/>
<path d="M37.0887 42.1297L40.521 3.67957H22.5V46.1742L37.0887 42.1297Z" fill="#2965F1"/>
<path d="M9.6543 20.3701L10.149 25.8893H22.5001V20.3701H9.6543Z" fill="#EBEBEB"/>
<path d="M22.4999 9.19891H22.4808H8.66016L9.16188 14.7183H22.4999V9.19891Z" fill="#EBEBEB"/>
<path d="M22.5 40.4467V34.7043L22.4758 34.7107L16.3289 33.0509L15.936 28.649H12.9491H10.3955L11.1688 37.3151L22.4746 40.4537L22.5 40.4467Z" fill="#EBEBEB"/>
<path d="M29.2773 25.8893L28.6367 33.0474L22.481 34.7089V40.451L33.7958 37.3151L33.8788 36.3827L35.1758 21.8522L35.3105 20.3701L36.3069 9.19891H22.481V14.7183H30.2582L29.756 20.3701H22.481V25.8893H29.2773Z" fill="white"/>
</svg>
