<svg width="45" height="50" viewBox="0 0 45 50" fill="none" xmlns="http://www.w3.org/2000/svg">
<g clip-path="url(#clip0)">
<path d="M4.57552 45.0478L0.5896 0.308899H44.4105L40.4246 45.0236L22.4638 50" fill="#E44D26"/>
<path d="M22.5 46.1953V3.98077H40.4125L36.9942 42.1489" fill="#F16529"/>
<path d="M8.73047 9.45233H22.5V14.936H14.7456L15.2529 20.5525H22.5V26.0241H10.2282L8.73047 9.45233ZM10.4698 28.778H15.9776L16.3641 33.1625L22.5 34.8052V40.5304L11.2428 37.39" fill="#EBEBEB"/>
<path d="M36.2212 9.45233H22.4758V14.936H35.7139L36.2212 9.45233ZM35.2187 20.5525H22.4758V26.0362H29.2398L28.5997 33.1625L22.4758 34.8052V40.5062L33.7089 37.39" fill="white"/>
</g>
<defs>
<clipPath id="clip0">
<rect width="44.0789" height="50" fill="white" transform="translate(0.460449)"/>
</clipPath>
</defs>
</svg>
