<svg width="36" height="36" viewBox="0 0 36 36" fill="none" xmlns="http://www.w3.org/2000/svg">
<path fill-rule="evenodd" clip-rule="evenodd" d="M7 0C3.134 0 0 3.13403 0 7V29C0 32.866 3.134 36 7 36H29C32.866 36 36 32.866 36 29V7C36 3.13403 32.866 0 29 0H7ZM8.5 11C9.87 11 10.98 9.8811 10.98 8.5C10.98 7.12012 9.87 6 8.5 6C7.13 6 6.02 7.12012 6.02 8.5C6.02 9.8811 7.13 11 8.5 11ZM6 29V13H11V29H6ZM14.014 13H18.982V15.155C21.078 11.2759 30 10.989 30 18.8689V29H25.012V20.6011C25.012 15.5491 18.983 15.9309 18.983 20.6011V29H14.014V13Z" fill="white"/>
</svg>
