<svg width="67" height="50" viewBox="0 0 67 50" fill="none" xmlns="http://www.w3.org/2000/svg">
<g clip-path="url(#clip0)">
<path d="M57.0552 28.6311C54.7725 28.6443 52.7968 29.192 51.1394 30.008C50.5274 28.7963 49.9154 27.7386 49.8134 26.9481C49.6982 26.0302 49.5584 25.4692 49.6982 24.3727C49.8379 23.2763 50.4764 21.7208 50.4764 21.5933C50.4642 21.4781 50.3356 20.9171 49.0229 20.9048C47.7102 20.8926 46.575 21.1598 46.4475 21.5046C46.2198 22.1415 46.0364 22.7935 45.8988 23.4558C45.6693 24.6542 43.2724 28.9003 41.9077 31.132C41.4609 30.2651 41.0784 29.5001 41.0019 28.8881C40.8867 27.9701 40.7469 27.4091 40.8867 26.3127C41.0264 25.2162 41.6649 23.6608 41.6649 23.5333C41.6527 23.418 41.5242 22.857 40.2115 22.8448C38.8988 22.8326 37.7635 23.0998 37.636 23.4445C37.5085 23.7893 37.3678 24.6053 37.0873 25.3957C36.8191 26.1862 33.6317 33.276 32.8034 35.1242C32.3822 36.0676 32.013 36.8204 31.7447 37.3304C31.4765 37.8403 31.7325 37.3691 31.707 37.4201L31.35 38.0963V38.1086C31.1715 38.4278 30.9798 38.7338 30.891 38.7338C30.8278 38.7338 30.6993 37.8791 30.9165 36.7061C31.3888 34.245 32.5362 30.4068 32.523 30.2671C32.523 30.2039 32.7402 29.5276 31.7835 29.1829C30.8523 28.8381 30.5208 29.4124 30.4443 29.4124C30.3678 29.4124 30.3035 29.6164 30.3035 29.6164C30.3035 29.6164 31.3367 25.2937 28.3268 25.2937C26.4399 25.2937 23.839 27.3469 22.5508 29.2206L16.0475 32.7782L15.9067 32.6253C12.2624 28.7331 5.51733 25.9792 5.79782 20.7518C5.89982 18.8516 6.5628 13.8406 18.7514 7.77176C28.7348 2.79943 36.7303 4.16312 38.1205 7.19752C40.0972 11.5324 33.8489 19.5901 23.4697 20.7529C19.5174 21.1996 17.4387 19.6686 16.9154 19.0954C16.3667 18.4957 16.2902 18.4702 16.0862 18.5854C15.7547 18.7639 15.9587 19.2994 16.0862 19.6187C16.3922 20.4224 17.6672 21.8503 19.8346 22.5643C21.7348 23.1896 26.3756 23.5333 31.9865 21.3659C38.2725 18.9302 43.1816 12.1729 41.7404 6.52536C40.2737 0.774794 30.737 -1.11214 21.7215 2.08851C16.3545 3.9989 10.5509 6.98128 6.36901 10.8959C1.38647 15.5368 0.596001 19.5921 0.92647 21.2751C2.08719 27.2806 10.3611 31.1953 13.676 34.0899L13.2171 34.3449C11.5596 35.1609 5.24806 38.4635 3.66712 41.9569C1.88218 45.9093 3.94761 48.7529 5.32456 49.1354C9.58292 50.3217 13.9433 48.192 16.3024 44.6853C18.6484 41.1787 18.3679 36.6276 17.2847 34.5489L17.2459 34.4724L18.5464 33.7074C19.3878 33.2097 20.2171 32.7507 20.9433 32.356C20.5353 33.4657 20.2416 34.7784 20.0886 36.6908C19.9101 38.9348 20.828 41.8417 22.0398 42.9901C22.5752 43.4879 23.2127 43.5001 23.6085 43.5001C25.0109 43.5001 25.6484 42.3394 26.3501 40.9502C27.2171 39.254 27.9821 37.2906 27.9821 37.2906C27.9821 37.2906 27.0253 42.6077 29.6395 42.6077C30.5962 42.6077 31.552 41.3704 31.9854 40.733V40.7452C31.9854 40.7452 32.0109 40.7064 32.0619 40.6177C32.1639 40.4647 32.2149 40.375 32.2149 40.375V40.3494C32.5974 39.6865 33.4521 38.1688 34.7271 35.6576C36.3723 32.4192 37.9533 28.3649 37.9533 28.3649C37.9533 28.3649 38.1063 29.3593 38.5785 30.9913C38.859 31.9602 39.471 33.019 39.9432 34.0512L39.3312 34.8926L39.3435 34.9059C39.0171 35.3383 38.6811 35.7634 38.3357 36.1809C37.0353 37.7363 35.4798 39.509 35.2758 40.019C35.0331 40.6187 35.0841 41.0644 35.5563 41.4214C35.9011 41.6764 36.5131 41.7274 37.1628 41.6764C38.3357 41.5999 39.1517 41.3062 39.5597 41.1277C40.2958 40.8653 40.9911 40.5003 41.6251 40.0435C42.9001 39.1 43.6783 37.7608 43.6018 35.9758C43.5631 34.9936 43.2448 34.0246 42.8491 33.1067L43.1938 32.5967C45.2083 29.651 46.7637 26.4126 46.7637 26.4126C46.7637 26.4126 46.9167 27.4071 47.389 29.0391C47.6317 29.8683 48.1162 30.773 48.5497 31.6655C46.6627 33.2087 45.4765 34.9936 45.0685 36.1666C44.3158 38.334 44.9023 39.3162 46.012 39.5457C46.5097 39.6477 47.2237 39.4182 47.7592 39.1887C48.4222 38.9715 49.2259 38.6022 49.9654 38.0535C51.2403 37.11 52.4643 35.7963 52.4011 34.0246C52.3623 33.2087 52.1461 32.4049 51.8523 31.64C53.4588 30.977 55.5375 30.5945 58.1761 30.9127C63.8502 31.5757 64.9721 35.1201 64.7549 36.599C64.5376 38.078 63.3524 38.894 62.9567 39.149C62.5609 39.3917 62.4334 39.4804 62.4722 39.6589C62.5232 39.9272 62.7017 39.9139 63.0464 39.8629C63.5187 39.7864 66.0298 38.6512 66.1318 35.9228C66.2848 32.4162 62.9567 28.5913 57.0541 28.63L57.0552 28.6311ZM13.2946 43.3849C11.4199 45.4381 8.78122 46.2153 7.65926 45.5523C6.44754 44.8506 6.91979 41.8294 9.22797 39.6487C10.6304 38.3228 12.4541 37.0988 13.6526 36.3461L14.8133 35.6444C14.8898 35.5934 14.9408 35.5679 14.9408 35.5679C15.0306 35.5169 15.1325 35.4526 15.2345 35.3894C16.0893 38.5003 15.2733 41.2287 13.2966 43.3838L13.2946 43.3849ZM27.0029 34.0644C26.3522 35.6586 24.9752 39.7507 24.147 39.5212C23.433 39.3295 22.9995 36.2319 24.0062 33.1709C24.5162 31.6277 25.6005 29.7918 26.2379 29.0778C27.2712 27.9304 28.3931 27.5479 28.6736 28.0191C29.0051 28.6311 27.4109 33.0679 27.0029 34.0634V34.0644ZM38.3123 39.4702C38.0318 39.611 37.7768 39.713 37.6615 39.6365C37.5718 39.5855 37.7768 39.3937 37.7768 39.3937C37.7768 39.3937 39.1925 37.876 39.7535 37.1753L40.8632 35.7596V35.9126C40.8632 37.7485 39.1038 38.9725 38.3133 39.4702H38.3123ZM47.033 37.4813C46.829 37.3283 46.8545 36.8561 47.543 35.3771C47.8112 34.7906 48.4232 33.8084 49.4809 32.8782C49.6084 33.2607 49.6849 33.6309 49.6727 33.9747C49.6594 36.2696 48.0275 37.1243 47.033 37.4813Z" fill="#CF649A"/>
</g>
<defs>
<clipPath id="clip0">
<rect width="65.9722" height="50" fill="white" transform="translate(0.513916)"/>
</clipPath>
</defs>
</svg>
